<svg width="198" height="259" viewBox="0 0 198 259" fill="none" xmlns="http://www.w3.org/2000/svg">
<path d="M58.1938 77.9012C58.3178 87.3061 57.9359 168.929 58.1937 198.469C58.4516 228.009 113.042 264.285 147.263 218.698" stroke="#711330" stroke-width="10" stroke-linecap="round"/>
<path d="M68.8261 37.6796C69.8274 38.7361 70.2217 39.8875 69.8451 41.039C69.8451 42.6313 69.1131 40.9893 68.8261 37.6796Z" fill="#711330"/>
<path d="M54.0361 104.362C21.5815 109.333 4.39123 70.942 21.4727 48.075C38.5542 25.2081 72.4352 33.1176 69.8451 41.039C69.8451 47.1955 58.9016 5 105.047 5C140.227 5 142.865 34.8825 142.865 34.8825C197.394 19.0516 218.502 106.121 149.022 106.121" stroke="#711330" stroke-width="10"/>
<circle cx="138.468" cy="41.039" r="8.29498" fill="#711330" stroke="#711330"/>
<path d="M150.781 85.0139V134.266" stroke="#711330" stroke-width="10" stroke-linecap="round"/>
<path d="M89.216 76.2189V125.471" stroke="#711330" stroke-width="10" stroke-linecap="round"/>
<path d="M120.878 76.2189V125.471" stroke="#711330" stroke-width="10" stroke-linecap="round"/>
<path d="M58.4337 179.12C57.1519 175.2 72.5057 165.048 86.5772 158.012C134.95 137.784 156.246 171.917 149.022 187.036C141.798 202.155 119.199 214.929 103.289 190.554" stroke="#711330" stroke-width="10" stroke-linecap="round"/>
</svg>
